<?xml version="1.0" encoding="UTF-8"?>
<svg xmlns="http://www.w3.org/2000/svg" xmlns:xlink="http://www.w3.org/1999/xlink" viewBox="0 0 40 40" version="1.1" width="480px" height="480px">
<g id="surface1">
<path style=" fill:#4788C7;" d="M 3.222656 9.980469 L 31.507813 10.003906 L 31.574219 10.003906 L 31.609375 10 C 31.777344 10 32.644531 10.027344 33.246094 10.597656 C 33.6875 11.015625 33.902344 11.617188 33.902344 12.433594 C 33.902344 23.402344 36.074219 29.414063 36.65625 30.425781 C 37.5625 31.996094 38.480469 34.152344 37.710938 35.507813 C 37.1875 36.429688 35.765625 37 34.019531 37 L 25.40625 36.820313 C 17.046875 36.820313 2 18.339844 2 12 C 2 10.769531 2.894531 10.097656 3.203125 9.980469 L 3.222656 9.980469 M 3.164063 8.980469 L 3 9 C 2.351563 9.160156 1 10.1875 1 12 C 1 18.832031 16.40625 37.820313 25.40625 37.820313 L 34 38 C 36.203125 38 37.894531 37.207031 38.582031 36 C 39.386719 34.585938 39.03125 32.539063 37.523438 29.925781 C 37.003906 29.023438 34.902344 23.074219 34.902344 12.433594 C 34.902344 11.34375 34.574219 10.480469 33.933594 9.871094 C 33.078125 9.066406 31.949219 9 31.609375 9 C 31.546875 9 31.511719 9.003906 31.507813 9.003906 Z "/>
<path style=" fill:#98CCFD;" d="M 5 37.5 C 4.726563 37.5 4.5 37.277344 4.5 37 L 4.5 8 C 4.5 7.722656 4.726563 7.5 5 7.5 L 29 7.5 C 29.273438 7.5 29.5 7.722656 29.5 8 L 29.5 37 C 29.5 37.277344 29.273438 37.5 29 37.5 Z "/>
<path style=" fill:#4788C7;" d="M 29 8 L 29 37 L 5 37 L 5 8 L 29 8 M 29 7 L 5 7 C 4.449219 7 4 7.449219 4 8 L 4 37 C 4 37.550781 4.449219 38 5 38 L 29 38 C 29.550781 38 30 37.550781 30 37 L 30 8 C 30 7.449219 29.550781 7 29 7 Z "/>
<path style=" fill:#DFF0FE;" d="M 7.5 1.5 L 26.5 1.5 L 26.5 23.5 L 7.5 23.5 Z "/>
<path style=" fill:#4788C7;" d="M 26 2 L 26 23 L 8 23 L 8 2 L 26 2 M 27 1 L 7 1 L 7 24 L 27 24 Z "/>
<path style=" fill:#98CCFD;" d="M 10.5 1.5 L 23.5 1.5 L 23.5 12.5 L 10.5 12.5 Z "/>
<path style=" fill:#4788C7;" d="M 23 2 L 23 12 L 11 12 L 11 2 L 23 2 M 24 1 L 10 1 L 10 13 L 24 13 Z "/>
<path style=" fill:#4788C7;" d="M 22 10 C 22 10.550781 21.550781 11 21 11 C 20.449219 11 20 10.550781 20 10 C 20 9.449219 20.449219 9 21 9 C 21.550781 9 22 9.449219 22 10 Z "/>
<path style=" fill:#98CCFD;" d="M 10 15 L 20 15 L 20 20 L 10 20 Z "/>
<path style=" fill:#98CCFD;" d="M 21 17.5 C 21 18.351563 21.648438 19 22.5 19 C 23.351563 19 24 18.351563 24 17.5 C 24 16.648438 23.351563 16 22.5 16 C 21.648438 16 21 16.648438 21 17.5 Z "/>
<path style=" fill:#4788C7;" d="M 20 3 L 22 3 L 22 5 L 20 5 Z "/>
<path style=" fill:#4788C7;" d="M 20 6 L 22 6 L 22 8 L 20 8 Z "/>
<path style=" fill:#FFFFFF;" d="M 8 28 L 10 28 L 10 37 L 8 37 Z "/>
<path style=" fill:#FFFFFF;" d="M 24 28 L 26 28 L 26 37 L 24 37 Z "/>
<path style=" fill:#FFFFFF;" d="M 16 15 L 18 15 L 18 20 L 16 20 Z "/>
<path style=" fill:#FFFFFF;" d="M 12 15 L 14 15 L 14 20 L 12 20 Z "/>
<path style=" fill:#DFF0FE;" d="M 13 4 L 18 4 L 18 10 L 13 10 Z "/>
<path style=" fill:#4788C7;" d="M 29 28 L 5 28 L 7 22 L 27 22 Z "/>
</g>
</svg>
